<svg id="Capa_1" enable-background="new 0 0 512.066 512.066" height="512" viewBox="0 0 512.066 512.066" width="512" xmlns="http://www.w3.org/2000/svg"><path d="m444.527 256.038c0-137.243-84.394-248.5-188.5-248.5 137.243 0 248.5 111.257 248.5 248.5s-111.257 248.5-248.5 248.5c104.106 0 188.5-111.257 188.5-248.5z" fill="#fd805e"/><path d="m256.027 7.538c120.674 0 218.5 111.257 218.5 248.5s-97.826 248.5-218.5 248.5c-23.955 0-43.375-19.42-43.375-43.375s19.42-43.375 43.375-43.375 43.375-19.42 43.375-43.375-19.42-43.375-43.375-43.375h-173.5c-41.421 0-75-33.579-75-75 0-137.242 111.258-248.5 248.5-248.5z" fill="#fea686"/><path d="m114.347 224.218c-10.043-10.043-23.652-14.336-36.751-12.9v89.44c13.099 1.436 26.708-2.857 36.751-12.9 8.787-8.787 8.787-23.033 0-31.82 8.787-8.787 8.787-23.033 0-31.82z" fill="#2d99e9"/><path d="m90.937 256.038c0-23.17-5.838-42.242-13.341-44.72-9.822 1.077-19.358 5.37-26.889 12.9-17.574 17.573-17.574 46.066 0 63.64 7.53 7.53 17.067 11.823 26.889 12.9 7.503-2.478 13.341-21.55 13.341-44.72z" fill="#12b5ff"/><path d="m133.344 88.355v90c12.426 0 22.5-10.074 22.5-22.5 12.426 0 22.5-10.074 22.5-22.5 0-24.853-20.147-45-45-45z" fill="#47bf70"/><path d="m148.344 133.355c0-24.853-6.716-45-15-45-24.853 0-45 20.147-45 45s20.147 45 45 45c8.285 0 15-20.147 15-45z" fill="#5ede8a"/><path d="m287.847 50.718c-8.787-8.787-20.303-13.18-31.82-13.18l8.476 82.124c7.901 2.762 17.029 1.011 23.344-5.304 17.574-17.574 17.574-46.066 0-63.64z" fill="#fff2d4"/><path d="m256.027 37.538c-11.517 0-23.033 4.393-31.82 13.18-17.574 17.573-17.574 46.066 0 63.64 8.787 8.787 23.033 8.787 31.82 0 2.472 2.472 5.383 4.223 8.476 5.304 3.939-8.11 6.524-21.709 6.524-37.124 0-24.853-6.715-45-15-45z" fill="#fff"/><path d="m461.347 224.218c-8.787-8.787-20.303-13.18-31.82-13.18l.001 90c11.516 0 23.032-4.394 31.819-13.18 17.574-17.574 17.574-46.066 0-63.64z" fill="#db3916"/><path d="m444.527 256.038c0-24.853-6.716-45-15-45-11.517 0-23.033 4.393-31.82 13.18s-8.787 23.033 0 31.82c-8.787 8.787-8.787 23.033 0 31.82s20.304 13.18 31.821 13.18c8.284-.002 14.999-20.148 14.999-45z" fill="#fc5a37"/><path d="m145.276 419.782 15.93-68.923-152.379 152.38c45.138 11.269 106.622-53.63 136.449-83.457z" fill="#071e61"/><path d="m124.079 398.585 37.127-47.726-68.923 15.93c-29.827 29.827-94.725 91.312-83.456 136.45 22.575-11.294 85.425-74.827 115.252-104.654z" fill="#12398f"/><path d="m196.743 283.503-72.66 115.086 21.213 21.213 99.852-87.894z" fill="#a8cfff"/><path d="m180.157 266.918-87.894 99.851 31.82 31.82 99.852-87.894z" fill="#adeeff"/><path d="m496.625 57.822c10.821-11.77 10.531-30.087-.882-41.499l-304.304 261.877 53.48 53.48z" fill="#ffc85f"/><path d="m454.244 15.441-273.859 251.705 43.286 43.286 272.071-294.11c-11.411-11.412-29.728-11.702-41.498-.881z" fill="#ffe278"/><path d="m255.079 320.626-21.213-21.213-21.213 21.213 21.213 21.213c5.858 5.858 15.355 5.858 21.213 0 5.858-5.857 5.858-15.355 0-21.213z" fill="#adeeff"/><path d="m233.866 320.626c5.858-5.858 5.858-15.355 0-21.213l-42.426-42.426c-5.858-5.858-15.355-5.858-21.213 0s-5.858 15.355 0 21.213l42.426 42.426c5.857 5.858 15.355 5.858 21.213 0z" fill="#e0f8ff"/><path d="m119.65 218.915c-9.916-9.916-23.1-15.377-37.123-15.377s-27.207 5.461-37.122 15.377c-9.917 9.916-15.378 23.1-15.378 37.123s5.461 27.207 15.377 37.123 23.1 15.377 37.123 15.377 27.207-5.461 37.123-15.377c5.666-5.667 8.786-13.2 8.786-21.213 0-5.715-1.587-11.186-4.553-15.91 2.966-4.724 4.553-10.195 4.553-15.91.001-8.013-3.12-15.547-8.786-21.213zm-10.606 42.427c2.833 2.833 4.393 6.6 4.393 10.606s-1.56 7.773-4.394 10.607c-7.082 7.083-16.499 10.983-26.516 10.983s-19.434-3.901-26.516-10.983c-7.084-7.083-10.984-16.5-10.984-26.517s3.9-19.434 10.984-26.517c7.082-7.083 16.499-10.983 26.516-10.983s19.434 3.901 26.517 10.984c2.833 2.833 4.393 6.6 4.393 10.606s-1.56 7.773-4.394 10.606c-1.406 1.407-2.196 3.314-2.196 5.303 0 1.991.79 3.898 2.197 5.305z"/><path d="m185.845 133.355c0-28.948-23.552-52.5-52.5-52.5s-52.5 23.552-52.5 52.5 23.552 52.5 52.5 52.5c14.226 0 26.171-9.954 29.237-23.263 13.309-3.066 23.263-15.011 23.263-29.237zm-37.5 22.5c0 8.271-6.729 15-15 15-20.678 0-37.5-16.823-37.5-37.5s16.822-37.5 37.5-37.5 37.5 16.823 37.5 37.5c0 8.271-6.729 15-15 15-4.143 0-7.5 3.358-7.5 7.5z"/><path d="m240.117 128.448c5.715 0 11.187-1.587 15.91-4.553 4.724 2.966 10.195 4.553 15.91 4.553 8.014 0 15.547-3.121 21.212-8.787 9.917-9.916 15.378-23.1 15.378-37.123s-5.461-27.207-15.377-37.123-23.1-15.377-37.123-15.377-27.207 5.461-37.122 15.377c-9.917 9.916-15.378 23.1-15.378 37.123s5.461 27.207 15.377 37.123c5.666 5.667 13.2 8.787 21.213 8.787zm-10.606-72.426c7.083-7.083 16.5-10.984 26.517-10.984s19.434 3.901 26.517 10.984 10.983 16.5 10.983 26.516-3.9 19.434-10.984 26.517c-2.833 2.833-6.6 4.393-10.605 4.393-4.007 0-7.773-1.56-10.607-4.394-1.464-1.465-3.383-2.197-5.303-2.197-1.919 0-3.839.732-5.303 2.197-2.834 2.833-6.601 4.394-10.607 4.394s-7.772-1.56-10.606-4.394c-7.083-7.083-10.983-16.5-10.983-26.516s3.898-19.433 10.981-26.516z"/><path d="m392.404 293.161c9.916 9.916 23.1 15.377 37.123 15.377s27.207-5.461 37.122-15.377c9.917-9.916 15.378-23.1 15.378-37.123s-5.461-27.207-15.377-37.123-23.1-15.377-37.123-15.377-27.207 5.461-37.123 15.377c-5.666 5.667-8.786 13.2-8.786 21.213 0 5.715 1.587 11.186 4.553 15.91-2.966 4.724-4.553 10.195-4.553 15.91 0 8.014 3.12 15.547 8.786 21.213zm10.607-42.426c-2.833-2.833-4.393-6.6-4.393-10.606s1.56-7.773 4.394-10.607c7.082-7.083 16.499-10.983 26.516-10.983s19.434 3.901 26.516 10.983c7.084 7.083 10.984 16.5 10.984 26.517s-3.9 19.434-10.984 26.517c-7.082 7.083-16.499 10.983-26.516 10.983s-19.434-3.901-26.517-10.984c-2.833-2.833-4.393-6.6-4.393-10.606s1.56-7.773 4.394-10.606c1.406-1.407 2.196-3.314 2.196-5.303 0-1.991-.79-3.899-2.197-5.305z"/><path d="m502.146 62.898c13.639-14.835 13.155-37.622-1.1-51.878-14.256-14.255-37.043-14.74-51.878-1.101l-42.548 39.107c-43.954-32.067-95.88-48.988-150.593-48.988-68.38 0-132.667 26.629-181.02 74.981-48.352 48.352-74.98 112.639-74.98 181.019 0 45.491 37.01 82.5 82.5 82.5h24.622l-20.338 23.116c-1.479 1.479-3.043 3.034-4.679 4.661-16.237 16.146-38.474 38.26-55.888 62.399-21.872 30.318-29.949 55.29-24.693 76.341.671 2.689 2.771 4.789 5.46 5.46 4.136 1.032 8.419 1.551 12.868 1.55 18.197-.001 39.11-8.669 63.472-26.244 24.139-17.414 46.252-39.651 62.399-55.887 1.627-1.636 3.182-3.2 4.66-4.679l83.993-73.898c8.425 4.208 18.962 2.803 25.979-4.214 6.979-6.979 8.385-17.434 4.259-25.838l188.034-204.583c29.042 40.849 44.351 88.821 44.351 139.316 0 132.888-108.112 241-241 241-19.781 0-35.875-16.094-35.875-35.875s16.094-35.875 35.875-35.875c28.053 0 50.875-22.823 50.875-50.875 0-13.106-4.98-25.555-14.024-35.053-2.854-3-7.602-3.117-10.604-.26-3 2.856-3.116 7.604-.26 10.603 6.376 6.698 9.888 15.473 9.888 24.711 0 19.781-16.094 35.875-35.875 35.875-28.053 0-50.875 22.823-50.875 50.875s22.822 50.875 50.875 50.875c68.38 0 132.668-26.629 181.02-74.981s74.98-112.639 74.98-181.019c0-54.713-16.921-106.639-48.987-150.593zm-42.826-41.936c8.898-8.181 22.568-7.888 31.119.664 8.553 8.553 8.845 22.222.664 31.121l-236.252 257.045-52.577-52.577zm-376.793 302.576c-37.22 0-67.5-30.281-67.5-67.5 0-132.888 108.112-241 241-241 50.495 0 98.468 15.309 139.317 44.351l-204.583 188.035c-8.404-4.127-18.859-2.72-25.839 4.259-7.017 7.017-8.421 17.553-4.213 25.979l-40.363 45.876zm-67.261 173.261c-4.44-38.205 47.95-90.518 77.007-119.415l42.408 42.407c-28.899 29.061-81.191 81.46-119.415 77.008zm234.51-160.263c-2.915 2.914-7.652 2.925-10.581.027-.024-.025-.05-.05-.074-.075l-42.378-42.378c-2.929-2.928-7.677-2.929-10.607 0-2.929 2.929-2.929 7.677 0 10.606l36.773 36.773-77.304 68.014-43.043-43.043 73.295-83.306c2.613-2.97 2.47-7.459-.327-10.257-2.925-2.925-2.925-7.683-.001-10.607 2.924-2.923 7.682-2.925 10.607 0l63.64 63.639c2.923 2.925 2.923 7.683 0 10.607z"/></svg>